<svg xmlns="http://www.w3.org/2000/svg" viewBox="0 0 64 64" role="img" aria-label="Real Play Basketball">
  <defs>
    <linearGradient id="bg" x1="8" y1="6" x2="56" y2="58" gradientUnits="userSpaceOnUse">
      <stop stop-color="#111822"/>
      <stop offset="1" stop-color="#010205"/>
    </linearGradient>
    <linearGradient id="chrome" x1="20" y1="13" x2="42" y2="52" gradientUnits="userSpaceOnUse">
      <stop stop-color="#ffffff"/>
      <stop offset=".48" stop-color="#f8f9fb"/>
      <stop offset=".72" stop-color="#aeb7c3"/>
      <stop offset="1" stop-color="#f6f8fb"/>
    </linearGradient>
    <linearGradient id="blue" x1="8" y1="8" x2="57" y2="56" gradientUnits="userSpaceOnUse">
      <stop stop-color="#16d8ff"/>
      <stop offset=".55" stop-color="#126cff"/>
      <stop offset="1" stop-color="#0647d6"/>
    </linearGradient>
  </defs>
  <rect width="64" height="64" rx="14" fill="url(#bg)"/>
  <rect x="3" y="3" width="58" height="58" rx="12" fill="none" stroke="url(#blue)" stroke-width="2"/>
  <circle cx="28" cy="31" r="20" fill="#030509" stroke="#dfe5ec" stroke-width="3"/>
  <circle cx="28" cy="31" r="17" fill="none" stroke="#18202b" stroke-width="2"/>
  <path d="M17 17h15c8 0 12 4 12 10 0 5-3 8-8 9l8 12h-9l-8-11h-3l-3 11h-8l7-25h-5l2-6Zm8 6-2 8h8c3 0 5-1 5-4 0-2-1-4-5-4h-6Z" fill="url(#chrome)"/>
  <path d="M47 18h11l2 4H46l1-4Z" fill="#16d8ff"/>
  <path d="M48 44h10l-2 5H45l3-5Z" fill="#ff1d29"/>
</svg>
